<svg xmlns="http://www.w3.org/2000/svg" width="12.12" height="12.118" viewBox="0 0 12.12 12.118">
  <g id="Group_60961" data-name="Group 60961" transform="translate(-108.4 -108.5)">
    <g id="Group_60961-2" data-name="Group 60961" transform="translate(108.4 108.5)">
      <path id="Path_155338" data-name="Path 155338" d="M114.459,120.618a6.059,6.059,0,1,1,0-12.118.519.519,0,1,1,0,1.039,5.022,5.022,0,0,0,0,10.044.517.517,0,1,1,0,1.035Z" transform="translate(-108.4 -108.5)"/>
      <path id="Path_155339" data-name="Path 155339" d="M313.669,280.146a.519.519,0,0,1-.368-.887l1.191-1.191h-5.672a.519.519,0,0,1,0-1.039h5.672l-1.191-1.191a.52.52,0,0,1,.736-.736l2.078,2.078a.522.522,0,0,1,0,.736l-2.078,2.078A.517.517,0,0,1,313.669,280.146Z" transform="translate(-304.146 -271.491)"/>
    </g>
  </g>
</svg>
